<?xml version="1.0" encoding="UTF-8"?>
<!DOCTYPE svg PUBLIC "-//W3C//DTD SVG 1.1//EN" "http://www.w3.org/Graphics/SVG/1.1/DTD/svg11.dtd">
<!-- Creator: CorelDRAW (Versão OEM) -->
<svg xmlns="http://www.w3.org/2000/svg" xml:space="preserve" width="15.2232mm" height="22.7457mm" version="1.1" style="shape-rendering:geometricPrecision; text-rendering:geometricPrecision; image-rendering:optimizeQuality; fill-rule:evenodd; clip-rule:evenodd"
viewBox="0 0 174.24 260.34"
 xmlns:xlink="http://www.w3.org/1999/xlink"
 xmlns:xodm="http://www.corel.com/coreldraw/odm/2003">
 <defs>
  <style type="text/css">
   <![CDATA[
    .fil0 {fill:#EEA45E}
   ]]>
  </style>
 </defs>
 <g id="Camada_x0020_1">
  <metadata id="CorelCorpID_0Corel-Layer"/>
  <path class="fil0" d="M74.23 14.18c-0.7,-2.99 -3.05,-6.27 -4.96,-8.18 -1.56,-1.56 -5.58,-4.74 -8.18,-4.96 -4.08,7.7 -5.93,16.32 -5.93,25.52 -1.38,0.32 -2.06,0.82 -3.31,1.33 -3.15,1.28 -5.65,3.63 -8.28,5.63 -1.2,0.91 -1.27,1.38 -2.25,2.39 -2.43,2.5 -4.14,5.27 -5.65,8.52 -2.18,4.67 -2.29,9.8 -3.92,14.64 -1.6,4.76 -3.1,9.16 -5.04,13.78 -1.79,4.29 -4.04,8.33 -6.08,12.48 -2,4.06 -4.61,7.94 -7.11,11.7 -2.74,4.12 -5.77,8.17 -8.95,11.93 -0.5,0.58 -0.59,0.56 -1.06,1.26 -2.06,3.02 -3.2,6.36 -3.5,9.75l0 3.54c0.42,4.89 2.58,9.63 6.25,13.31 8.74,8.76 23.77,7.82 31.2,-2.18 3.55,-4.77 6.7,-8.61 11.32,-12.39 11.66,-9.55 29.66,-15.09 46.59,-11.14 -0.26,0.99 -3.06,5.29 -3.79,6.26 -2.94,3.9 -5.56,8.13 -8.9,11.72l-2.44 2.72c-0.52,0.62 -0.56,0.8 -1.17,1.41 -0.57,0.57 -0.76,0.74 -1.23,1.35l-12.31 13.21c-0.83,0.94 -1.72,1.65 -2.58,2.58 -0.55,0.59 -0.61,0.83 -1.15,1.42 -0.46,0.5 -0.82,0.79 -1.3,1.28 -3.32,3.45 -6.29,7.37 -9.17,11.19 -7.11,9.42 -11.91,20.21 -14.28,32.12 -0.53,2.68 -1.14,5.91 -1.44,8.87 -0.76,7.51 -0.52,15.72 0.52,23.12 0.57,4.08 1.54,8.03 2.62,11.81 0.69,2.39 6.42,18.35 8.93,20.19 0,-3.99 2.11,-10.39 3.38,-14.15 3.4,-10.07 8.62,-20.16 15.64,-28.18 0.69,-0.79 1.35,-1.53 2.01,-2.37 2.53,-3.23 8.17,-8.39 11.3,-10.87 6.75,-5.34 13.96,-9.6 21.98,-13.07 4.31,-1.86 8.92,-2.98 13.42,-4.36 3.72,-1.14 8.6,-3.48 12.02,-5.51 5.59,-3.32 10.56,-6.58 15.54,-10.75l4.52 -4.24c6.02,-6.02 10.93,-12.71 15.29,-20.02l2.94 -5.82c4.95,-9.77 8.51,-23.01 8.51,-35.57l0 -5.93c0,-15.75 -5.49,-33.76 -14.65,-46.18 -1.78,-2.41 -3.54,-4.87 -5.65,-6.98 -2.22,-2.22 -1.49,-1.92 -5.02,-5.03l-5.57 -4.74c-5.47,-4.28 -11.57,-7.35 -17.91,-10.18 -8.76,-3.92 -22.69,-7.05 -34.96,-7.05 0,-5.08 -0.46,-8.76 -2.84,-12.88 -1.32,-2.29 -3.82,-5.21 -6.18,-6.45 -1.43,2.14 -2.72,4.15 -3.95,6.62l-3.27 7.56zm-15.63 37.43c3.87,0 7.01,3.14 7.01,7.01 0,3.87 -3.14,7.01 -7.01,7.01 -3.87,0 -7.01,-3.14 -7.01,-7.01 0,-3.87 3.14,-7.01 7.01,-7.01z"/>
 </g>
</svg>
